<mxfile host="app.diagrams.net" agent="Mozilla/5.0 (X11; Linux x86_64; rv:128.0) Gecko/20100101 Firefox/128.0" version="25.0.3">
  <diagram id="prtHgNgQTEPvFCAcTncT" name="Page-1">
    <mxGraphModel dx="1050" dy="576" grid="1" gridSize="10" guides="1" tooltips="1" connect="1" arrows="1" fold="1" page="1" pageScale="1" pageWidth="827" pageHeight="1169" math="0" shadow="0">
      <root>
        <mxCell id="0" />
        <mxCell id="1" parent="0" />
        <mxCell id="wEYrdLA-VfsN3QdMjNX--1" value="&lt;div&gt;&lt;b&gt;NetworthDB&lt;/b&gt;: An library that converts data to SQL.&lt;br&gt;&lt;/div&gt;" style="rounded=0;whiteSpace=wrap;html=1;" vertex="1" parent="1">
          <mxGeometry x="350" y="270" width="120" height="60" as="geometry" />
        </mxCell>
        <mxCell id="wEYrdLA-VfsN3QdMjNX--3" value="" style="edgeStyle=orthogonalEdgeStyle;rounded=0;orthogonalLoop=1;jettySize=auto;html=1;" edge="1" parent="1" source="wEYrdLA-VfsN3QdMjNX--2" target="wEYrdLA-VfsN3QdMjNX--1">
          <mxGeometry relative="1" as="geometry" />
        </mxCell>
        <mxCell id="wEYrdLA-VfsN3QdMjNX--2" value="&lt;div&gt;&lt;b&gt;NetworthHTTP&lt;/b&gt;:&amp;nbsp; NetworthDB over HTTP&lt;br&gt;&lt;/div&gt;" style="rounded=0;whiteSpace=wrap;html=1;" vertex="1" parent="1">
          <mxGeometry x="350" y="150" width="120" height="60" as="geometry" />
        </mxCell>
        <mxCell id="wEYrdLA-VfsN3QdMjNX--5" value="" style="edgeStyle=orthogonalEdgeStyle;rounded=0;orthogonalLoop=1;jettySize=auto;html=1;" edge="1" parent="1" source="wEYrdLA-VfsN3QdMjNX--4" target="wEYrdLA-VfsN3QdMjNX--2">
          <mxGeometry relative="1" as="geometry" />
        </mxCell>
        <mxCell id="wEYrdLA-VfsN3QdMjNX--4" value="&lt;div&gt;&lt;b&gt;NetworthDOM&lt;/b&gt;:&amp;nbsp; Use NetworthHTTP to provide a user inferface on broswer for the user&lt;br&gt;&lt;/div&gt;" style="rounded=0;whiteSpace=wrap;html=1;" vertex="1" parent="1">
          <mxGeometry x="520" y="150" width="200" height="60" as="geometry" />
        </mxCell>
        <mxCell id="wEYrdLA-VfsN3QdMjNX--6" value="&lt;b&gt;.github&lt;/b&gt;: A meta repository for the project" style="rounded=0;whiteSpace=wrap;html=1;" vertex="1" parent="1">
          <mxGeometry x="160" y="150" width="120" height="60" as="geometry" />
        </mxCell>
      </root>
    </mxGraphModel>
  </diagram>
</mxfile>
